<svg width="221" height="47" viewBox="0 0 221 47" fill="none" xmlns="http://www.w3.org/2000/svg">
<path d="M30.936 38.064H14.168L11.48 46H0.024L16.28 1.072H28.952L45.208 46H33.624L30.936 38.064ZM28.12 29.616L22.552 13.168L17.048 29.616H28.12ZM77.3555 22.96C79.9582 23.5147 82.0488 24.816 83.6275 26.864C85.2062 28.8693 85.9955 31.1733 85.9955 33.776C85.9955 37.5307 84.6728 40.5173 82.0275 42.736C79.4248 44.912 75.7768 46 71.0835 46H50.1555V1.072H70.3795C74.9448 1.072 78.5075 2.11733 81.0675 4.208C83.6702 6.29866 84.9715 9.136 84.9715 12.72C84.9715 15.3653 84.2675 17.5627 82.8595 19.312C81.4942 21.0613 79.6595 22.2773 77.3555 22.96ZM61.0995 19.248H68.2675C70.0595 19.248 71.4248 18.864 72.3635 18.096C73.3448 17.2853 73.8355 16.112 73.8355 14.576C73.8355 13.04 73.3448 11.8667 72.3635 11.056C71.4248 10.2453 70.0595 9.84 68.2675 9.84H61.0995V19.248ZM69.1635 37.168C70.9982 37.168 72.4062 36.7627 73.3875 35.952C74.4115 35.0987 74.9235 33.8827 74.9235 32.304C74.9235 30.7253 74.3902 29.488 73.3235 28.592C72.2995 27.696 70.8702 27.248 69.0355 27.248H61.0995V37.168H69.1635ZM113.591 46.448C109.367 46.448 105.484 45.4667 101.943 43.504C98.4443 41.5413 95.6497 38.8107 93.559 35.312C91.511 31.7707 90.487 27.8027 90.487 23.408C90.487 19.0133 91.511 15.0667 93.559 11.568C95.6497 8.06933 98.4443 5.33867 101.943 3.376C105.484 1.41333 109.367 0.431999 113.591 0.431999C117.815 0.431999 121.676 1.41333 125.175 3.376C128.716 5.33867 131.49 8.06933 133.495 11.568C135.543 15.0667 136.567 19.0133 136.567 23.408C136.567 27.8027 135.543 31.7707 133.495 35.312C131.447 38.8107 128.674 41.5413 125.175 43.504C121.676 45.4667 117.815 46.448 113.591 46.448ZM113.591 36.464C117.175 36.464 120.034 35.2693 122.167 32.88C124.343 30.4907 125.431 27.3333 125.431 23.408C125.431 19.44 124.343 16.2827 122.167 13.936C120.034 11.5467 117.175 10.352 113.591 10.352C109.964 10.352 107.063 11.5253 104.887 13.872C102.754 16.2187 101.687 19.3973 101.687 23.408C101.687 27.376 102.754 30.5547 104.887 32.944C107.063 35.2907 109.964 36.464 113.591 36.464ZM153.408 1.072V27.952C153.408 30.64 154.069 32.7093 155.392 34.16C156.714 35.6107 158.656 36.336 161.216 36.336C163.776 36.336 165.738 35.6107 167.104 34.16C168.469 32.7093 169.152 30.64 169.152 27.952V1.072H180.096V27.888C180.096 31.8987 179.242 35.2907 177.536 38.064C175.829 40.8373 173.525 42.928 170.624 44.336C167.765 45.744 164.565 46.448 161.024 46.448C157.482 46.448 154.304 45.7653 151.488 44.4C148.714 42.992 146.517 40.9013 144.896 38.128C143.274 35.312 142.464 31.8987 142.464 27.888V1.072H153.408ZM220.101 1.072V9.84H208.197V46H197.253V9.84H185.349V1.072H220.101Z" fill="#EDEDED"/>
</svg>
