<svg width="417" height="51" viewBox="0 0 417 51" fill="none" xmlns="http://www.w3.org/2000/svg">
<path d="M0.64 8.32H12.16V48H17.6V8.32H29.12V3.2H0.64V8.32ZM37.878 48H60.47V42.88H37.878V48ZM37.878 8.32H60.47V3.2H37.878V8.32ZM37.878 26.24H59.19V21.12H37.878V26.24ZM34.87 3.2V48H40.31V3.2H34.87ZM71.7215 34.432L67.3695 37.376C68.3508 39.3387 69.6095 41.1947 71.1455 42.944C72.7242 44.6507 74.5375 46.0373 76.5855 47.104C78.6762 48.128 80.9375 48.64 83.3695 48.64C85.1615 48.64 86.8682 48.3413 88.4895 47.744C90.1535 47.1467 91.6255 46.2933 92.9055 45.184C94.2282 44.0747 95.2522 42.7307 95.9775 41.152C96.7455 39.5733 97.1295 37.8027 97.1295 35.84C97.1295 33.792 96.7668 32.0427 96.0415 30.592C95.3162 29.0987 94.3775 27.84 93.2255 26.816C92.1162 25.7493 90.9002 24.8747 89.5775 24.192C88.2548 23.5093 86.9962 22.9547 85.8015 22.528C83.1988 21.632 81.1295 20.736 79.5935 19.84C78.1002 18.9013 77.0335 17.92 76.3935 16.896C75.7535 15.8293 75.4335 14.6773 75.4335 13.44C75.4335 11.9893 75.9882 10.688 77.0975 9.536C78.2068 8.34133 79.9775 7.744 82.4095 7.744C84.1588 7.744 85.6308 8.08533 86.8255 8.768C88.0628 9.45067 89.1082 10.3253 89.9615 11.392C90.8148 12.4587 91.5188 13.5467 92.0735 14.656L96.7455 11.968C96.0202 10.3893 95.0175 8.896 93.7375 7.488C92.4575 6.03733 90.9002 4.864 89.0655 3.968C87.2735 3.02933 85.1615 2.56 82.7295 2.56C80.2122 2.56 77.9722 3.072 76.0095 4.096C74.0468 5.07733 72.5108 6.44266 71.4015 8.192C70.2922 9.94133 69.7375 11.9253 69.7375 14.144C69.7375 16.192 70.1215 17.92 70.8895 19.328C71.7002 20.736 72.7242 21.9307 73.9615 22.912C75.1988 23.8507 76.5002 24.64 77.8655 25.28C79.2308 25.8773 80.4682 26.368 81.5775 26.752C83.2842 27.3493 84.8842 28.032 86.3775 28.8C87.9135 29.5253 89.1508 30.4853 90.0895 31.68C91.0282 32.8747 91.4975 34.4747 91.4975 36.48C91.4975 38.528 90.7722 40.2133 89.3215 41.536C87.8708 42.8587 85.9508 43.52 83.5615 43.52C81.7695 43.52 80.1695 43.136 78.7615 42.368C77.3535 41.6 76.0735 40.5333 74.9215 39.168C73.8122 37.8027 72.7455 36.224 71.7215 34.432ZM100.64 8.32H112.16V48H117.6V8.32H129.12V3.2H100.64V8.32ZM134.87 3.2V48H140.31V3.2H134.87ZM156.766 17.728L171.358 43.84L185.95 17.728L189.278 48H194.718L189.278 0.959999L171.358 33.408L153.438 0.959999L147.998 48H153.438L156.766 17.728ZM205.57 25.6C205.57 22.2293 206.295 19.2213 207.746 16.576C209.239 13.9307 211.266 11.84 213.826 10.304C216.386 8.768 219.287 8 222.53 8C225.815 8 228.717 8.768 231.234 10.304C233.794 11.84 235.799 13.9307 237.25 16.576C238.743 19.2213 239.49 22.2293 239.49 25.6C239.49 28.9707 238.743 31.9787 237.25 34.624C235.799 37.2693 233.794 39.36 231.234 40.896C228.717 42.432 225.815 43.2 222.53 43.2C219.287 43.2 216.386 42.432 213.826 40.896C211.266 39.36 209.239 37.2693 207.746 34.624C206.295 31.9787 205.57 28.9707 205.57 25.6ZM199.81 25.6C199.81 28.8427 200.365 31.872 201.474 34.688C202.626 37.504 204.226 39.9573 206.274 42.048C208.322 44.096 210.733 45.7173 213.506 46.912C216.279 48.064 219.287 48.64 222.53 48.64C225.815 48.64 228.823 48.064 231.554 46.912C234.327 45.7173 236.738 44.096 238.786 42.048C240.834 39.9573 242.413 37.504 243.522 34.688C244.674 31.872 245.25 28.8427 245.25 25.6C245.25 22.3147 244.674 19.2853 243.522 16.512C242.413 13.696 240.834 11.264 238.786 9.216C236.738 7.12533 234.327 5.504 231.554 4.352C228.823 3.15733 225.815 2.56 222.53 2.56C219.287 2.56 216.279 3.15733 213.506 4.352C210.733 5.504 208.322 7.12533 206.274 9.216C204.226 11.264 202.626 13.696 201.474 16.512C200.365 19.2853 199.81 22.3147 199.81 25.6ZM286.853 3.2V36.544L252.933 0.959999V48H258.373V14.656L292.293 50.24V3.2H286.853ZM302.558 3.2V48H307.998V3.2H302.558ZM322.533 34.56H346.213L344.293 29.44H324.453L322.533 34.56ZM334.245 13.312L341.925 31.36L342.437 32.64L348.965 48H355.045L334.245 0.959999L313.445 48H319.525L326.181 32.256L326.693 31.104L334.245 13.312ZM360.495 3.2V48H383.535V42.88H365.935V3.2H360.495ZM390.972 34.432L386.62 37.376C387.601 39.3387 388.86 41.1947 390.396 42.944C391.974 44.6507 393.788 46.0373 395.836 47.104C397.926 48.128 400.188 48.64 402.62 48.64C404.412 48.64 406.118 48.3413 407.74 47.744C409.404 47.1467 410.876 46.2933 412.156 45.184C413.478 44.0747 414.502 42.7307 415.228 41.152C415.996 39.5733 416.38 37.8027 416.38 35.84C416.38 33.792 416.017 32.0427 415.292 30.592C414.566 29.0987 413.628 27.84 412.476 26.816C411.366 25.7493 410.15 24.8747 408.828 24.192C407.505 23.5093 406.246 22.9547 405.052 22.528C402.449 21.632 400.38 20.736 398.844 19.84C397.35 18.9013 396.284 17.92 395.644 16.896C395.004 15.8293 394.684 14.6773 394.684 13.44C394.684 11.9893 395.238 10.688 396.348 9.536C397.457 8.34133 399.228 7.744 401.66 7.744C403.409 7.744 404.881 8.08533 406.076 8.768C407.313 9.45067 408.358 10.3253 409.212 11.392C410.065 12.4587 410.769 13.5467 411.324 14.656L415.996 11.968C415.27 10.3893 414.268 8.896 412.988 7.488C411.708 6.03733 410.15 4.864 408.316 3.968C406.524 3.02933 404.412 2.56 401.98 2.56C399.462 2.56 397.222 3.072 395.26 4.096C393.297 5.07733 391.761 6.44266 390.652 8.192C389.542 9.94133 388.988 11.9253 388.988 14.144C388.988 16.192 389.372 17.92 390.14 19.328C390.95 20.736 391.974 21.9307 393.212 22.912C394.449 23.8507 395.75 24.64 397.116 25.28C398.481 25.8773 399.718 26.368 400.828 26.752C402.534 27.3493 404.134 28.032 405.628 28.8C407.164 29.5253 408.401 30.4853 409.34 31.68C410.278 32.8747 410.748 34.4747 410.748 36.48C410.748 38.528 410.022 40.2133 408.572 41.536C407.121 42.8587 405.201 43.52 402.812 43.52C401.02 43.52 399.42 43.136 398.012 42.368C396.604 41.6 395.324 40.5333 394.172 39.168C393.062 37.8027 391.996 36.224 390.972 34.432Z" fill="#ECECEC"/>
</svg>
