<svg width="23" height="18" viewBox="0 0 23 18" fill="none" xmlns="http://www.w3.org/2000/svg">
<path d="M22.6905 2.11613C21.8724 2.475 21.0006 2.71288 20.0917 2.82838C21.0267 2.27013 21.7404 1.39287 22.0759 0.3355C21.2041 0.85525 20.2416 1.22238 19.2159 1.42725C18.3881 0.545875 17.2084 0 15.9214 0C13.4244 0 11.4141 2.02675 11.4141 4.51137C11.4141 4.86888 11.4444 5.21263 11.5186 5.53988C7.76899 5.357 4.45112 3.55988 2.22224 0.82225C1.83312 1.49738 1.60487 2.27012 1.60487 3.102C1.60487 4.664 2.40924 6.04862 3.60824 6.85025C2.88362 6.8365 2.17274 6.62613 1.57049 6.29475C1.57049 6.3085 1.57049 6.32638 1.57049 6.34425C1.57049 8.536 3.13387 10.3565 5.18399 10.7759C4.81687 10.8763 4.41674 10.9244 4.00149 10.9244C3.71274 10.9244 3.42124 10.9079 3.14762 10.8474C3.73199 12.6335 5.39024 13.9466 7.36199 13.9893C5.82749 15.1896 3.87912 15.9129 1.76987 15.9129C1.39999 15.9129 1.04524 15.8964 0.690491 15.851C2.68837 17.1394 5.05612 17.875 7.60949 17.875C15.909 17.875 20.4465 11 20.4465 5.04075C20.4465 4.84137 20.4396 4.64887 20.43 4.45775C21.3251 3.8225 22.0772 3.02913 22.6905 2.11613Z" fill="white"/>
</svg>
